<?xml version="1.0" standalone="no"?>
<!DOCTYPE svg PUBLIC "-//W3C//DTD SVG 20010904//EN"
 "http://www.w3.org/TR/2001/REC-SVG-20010904/DTD/svg10.dtd">
<svg version="1.0" xmlns="http://www.w3.org/2000/svg"
 width="1654.000000pt" height="1654.000000pt" viewBox="0 0 1654.000000 1654.000000"
 preserveAspectRatio="xMidYMid meet">

<g transform="translate(0.000000,1654.000000) scale(0.100000,-0.100000)"
fill="#000000" stroke="none">
<path d="M8195 13969 c-22 -5 -125 -13 -230 -18 -104 -5 -208 -14 -230 -20
-22 -6 -66 -11 -97 -11 -31 0 -59 -4 -63 -9 -3 -6 -37 -13 -75 -17 -39 -4 -73
-11 -76 -15 -3 -5 -24 -9 -47 -9 -23 0 -55 -7 -71 -15 -15 -8 -47 -15 -71 -15
-26 0 -47 -6 -55 -15 -7 -8 -28 -15 -47 -15 -19 0 -41 -7 -49 -15 -9 -8 -30
-15 -47 -15 -18 0 -41 -7 -51 -15 -11 -8 -35 -15 -53 -15 -18 0 -33 -4 -33
-10 0 -5 -18 -13 -40 -16 -22 -4 -40 -10 -40 -15 0 -5 -18 -12 -40 -15 -22 -4
-43 -11 -46 -15 -3 -5 -16 -9 -28 -9 -13 0 -29 -7 -36 -15 -7 -8 -25 -15 -40
-15 -15 0 -33 -7 -40 -15 -7 -8 -23 -15 -35 -15 -12 0 -28 -7 -35 -15 -7 -8
-19 -15 -27 -15 -8 0 -21 -7 -29 -15 -9 -8 -25 -15 -38 -15 -12 0 -26 -4 -32
-9 -5 -5 -54 -33 -109 -61 -55 -28 -104 -56 -109 -61 -6 -5 -16 -9 -24 -9 -7
0 -20 -7 -28 -15 -9 -8 -24 -15 -35 -15 -10 0 -19 -4 -19 -9 0 -5 -18 -18 -39
-29 -59 -31 -79 -43 -149 -89 -35 -24 -66 -43 -68 -43 -3 0 -32 -20 -64 -45
-32 -25 -63 -45 -69 -45 -6 0 -11 -4 -11 -8 0 -4 -18 -19 -40 -32 -22 -14 -40
-28 -40 -32 0 -5 -4 -8 -10 -8 -5 0 -22 -12 -38 -27 -16 -16 -39 -35 -52 -43
-12 -8 -44 -35 -70 -60 -26 -25 -67 -62 -91 -82 -113 -94 -309 -282 -309 -295
0 -6 -39 -50 -102 -115 -27 -27 -48 -53 -48 -58 0 -6 -3 -10 -7 -10 -5 0 -26
-25 -48 -55 -22 -30 -43 -55 -47 -55 -4 0 -8 -4 -8 -9 0 -6 -13 -25 -30 -43
-16 -18 -30 -38 -30 -45 0 -7 -4 -13 -8 -13 -4 0 -19 -18 -32 -40 -14 -22 -28
-40 -32 -40 -5 0 -8 -7 -8 -15 0 -7 -6 -18 -12 -22 -15 -9 -36 -41 -44 -65 -4
-10 -10 -18 -14 -18 -5 0 -19 -20 -31 -45 -12 -25 -26 -45 -31 -45 -4 0 -8 -6
-8 -13 0 -8 -12 -32 -27 -54 -44 -63 -53 -76 -64 -105 -6 -16 -15 -28 -20 -28
-5 0 -9 -9 -9 -19 0 -11 -4 -22 -10 -26 -5 -3 -33 -53 -61 -111 -29 -58 -56
-107 -61 -110 -4 -3 -8 -16 -8 -28 0 -13 -7 -29 -15 -36 -8 -7 -15 -21 -15
-31 0 -9 -7 -24 -15 -33 -8 -8 -15 -26 -15 -39 0 -14 -7 -30 -15 -37 -8 -7
-15 -21 -15 -30 0 -10 -8 -33 -17 -52 -31 -62 -33 -68 -33 -92 0 -14 -7 -31
-15 -40 -8 -8 -15 -25 -15 -38 0 -13 -7 -33 -15 -44 -8 -10 -15 -33 -15 -50 0
-16 -7 -39 -15 -50 -8 -10 -15 -33 -15 -51 0 -17 -7 -38 -15 -47 -8 -8 -15
-32 -15 -53 0 -21 -7 -47 -15 -57 -8 -11 -15 -37 -15 -59 0 -21 -5 -48 -11
-59 -12 -22 -23 -83 -40 -207 -5 -41 -13 -79 -18 -85 -5 -6 -11 -57 -13 -114
-3 -58 -10 -108 -17 -115 -14 -14 -16 -829 -1 -857 5 -10 14 -69 20 -131 14
-161 30 -281 41 -301 5 -10 9 -34 9 -53 0 -20 7 -52 15 -72 8 -19 15 -52 15
-72 1 -20 7 -47 15 -61 8 -14 15 -41 15 -60 0 -19 7 -44 15 -54 8 -11 15 -36
15 -57 0 -24 5 -39 15 -43 9 -3 15 -18 15 -38 0 -18 7 -42 15 -52 8 -11 15
-32 15 -47 0 -15 5 -31 10 -34 6 -3 10 -14 10 -23 0 -9 6 -29 14 -44 8 -15 17
-40 21 -57 4 -17 11 -33 16 -36 5 -4 9 -17 9 -29 0 -13 7 -29 15 -36 8 -7 15
-23 15 -35 0 -12 7 -28 15 -35 8 -7 15 -23 15 -35 0 -12 7 -28 15 -35 8 -7 15
-21 15 -32 0 -11 7 -26 15 -34 8 -9 15 -24 15 -35 0 -10 4 -19 8 -19 9 0 42
-69 42 -87 0 -6 7 -16 15 -23 8 -7 15 -23 15 -35 0 -13 7 -25 15 -29 8 -3 15
-14 15 -25 0 -11 5 -23 11 -26 5 -4 15 -17 20 -28 5 -12 18 -35 29 -52 11 -16
23 -37 27 -45 4 -8 13 -21 20 -28 7 -7 13 -20 13 -28 0 -8 5 -14 10 -14 6 0
10 -6 10 -14 0 -7 7 -19 15 -26 8 -7 15 -18 15 -26 0 -7 14 -28 30 -46 16 -18
30 -36 30 -41 0 -4 5 -13 10 -20 41 -48 50 -62 50 -73 0 -7 3 -14 8 -16 12 -5
72 -85 72 -96 0 -5 7 -12 15 -16 8 -3 15 -12 15 -21 0 -8 6 -15 14 -15 7 0 16
-8 20 -17 9 -28 25 -48 123 -151 51 -53 93 -100 93 -104 0 -11 172 -181 265
-263 44 -38 97 -87 117 -107 21 -21 42 -38 48 -38 5 0 10 -3 10 -7 0 -5 17
-19 37 -33 21 -14 47 -34 58 -46 31 -31 223 -174 235 -174 5 0 10 -4 10 -10 0
-5 6 -10 14 -10 8 0 21 -6 28 -13 7 -7 31 -24 53 -37 22 -13 42 -26 45 -29 8
-9 43 -30 68 -41 12 -5 22 -14 22 -20 0 -5 8 -10 19 -10 10 0 24 -7 31 -15 7
-8 19 -15 26 -15 8 0 14 -4 14 -10 0 -5 7 -10 16 -10 9 0 27 -9 41 -20 14 -11
32 -20 39 -20 8 0 14 -4 14 -10 0 -5 8 -10 19 -10 10 0 24 -7 31 -15 7 -8 20
-15 30 -15 10 0 23 -7 30 -15 7 -8 23 -15 36 -15 13 0 24 -4 24 -8 0 -5 19
-16 43 -26 23 -10 55 -25 71 -32 16 -8 37 -14 46 -14 10 0 23 -7 30 -15 7 -8
20 -15 29 -15 9 0 29 -7 45 -15 15 -8 37 -15 47 -15 11 0 22 -7 25 -15 4 -9
19 -15 39 -15 18 0 38 -7 45 -15 7 -8 22 -15 34 -15 12 0 31 -7 42 -15 10 -8
27 -15 38 -15 18 0 108 -26 136 -40 9 -4 35 -11 58 -15 23 -4 44 -11 48 -16 3
-5 21 -9 41 -9 19 0 49 -6 66 -14 18 -8 61 -16 96 -19 35 -3 67 -10 70 -15 3
-5 37 -11 75 -14 42 -2 71 -9 74 -16 2 -8 29 -12 77 -12 41 0 86 -5 102 -12
32 -13 374 -31 608 -31 186 0 438 17 478 32 16 6 61 11 102 11 45 0 84 6 101
15 16 8 54 15 85 15 31 0 70 7 85 15 16 8 49 15 74 15 26 0 51 5 58 12 6 6 33
15 59 19 74 12 147 30 158 40 5 5 18 9 30 9 12 0 30 7 41 15 10 8 31 15 45 15
14 0 34 7 45 15 10 8 30 15 44 15 14 0 34 7 44 15 11 8 29 15 40 15 12 0 30 7
40 15 11 8 30 15 42 15 12 0 27 7 34 15 7 8 20 15 30 15 10 0 31 7 46 15 16 8
37 15 47 15 9 0 17 5 17 10 0 6 11 10 24 10 14 0 31 7 40 15 8 8 24 15 36 15
11 0 23 7 26 15 4 8 17 15 30 15 14 0 27 7 30 15 4 8 17 15 30 15 14 0 27 7
30 15 4 8 14 15 24 15 11 0 21 4 25 9 3 6 27 20 53 33 26 13 53 29 60 36 7 6
20 12 28 12 8 0 14 3 14 8 0 4 19 16 43 27 23 11 48 26 55 32 7 7 20 13 27 13
8 0 18 6 22 13 4 7 25 21 46 32 20 11 37 22 37 26 0 4 8 10 18 13 27 10 55 29
87 59 17 15 38 27 47 27 10 0 18 7 18 15 0 8 7 15 15 15 8 0 15 4 15 9 0 5 17
20 38 32 36 23 68 48 101 79 9 8 30 24 46 34 17 11 34 25 38 33 4 7 11 13 16
13 4 0 34 26 68 58 33 31 95 90 137 129 42 40 79 73 83 74 5 0 25 21 47 47 21
26 67 78 102 115 35 38 64 72 64 78 0 5 7 9 15 9 8 0 15 6 15 14 0 8 7 16 15
20 8 3 15 11 15 18 0 7 19 34 43 60 55 61 90 106 99 129 4 11 12 19 18 19 5 0
10 7 10 15 0 8 4 15 9 15 4 0 32 38 60 85 29 47 57 85 62 85 5 0 9 6 9 14 0 8
6 21 13 28 16 19 35 48 47 76 5 12 14 22 20 22 5 0 10 8 10 19 0 10 7 24 15
31 8 7 15 18 15 25 0 8 3 15 8 17 4 2 18 26 31 53 14 28 27 52 30 55 3 3 14
23 25 45 10 22 22 47 27 55 4 8 18 35 29 60 12 25 26 52 31 60 5 8 12 22 15
30 21 53 36 87 44 102 6 10 10 26 10 37 0 10 7 24 15 31 8 7 15 23 15 35 0 12
7 28 15 35 8 7 15 25 15 40 0 15 7 33 15 40 8 7 15 25 15 40 0 15 7 33 15 40
8 7 15 27 15 45 0 18 7 38 15 45 8 7 15 27 15 46 0 18 5 36 10 39 6 3 10 18
10 32 0 14 6 39 14 56 8 18 17 53 21 79 3 26 10 50 16 53 5 4 9 23 9 44 0 20
7 46 15 57 8 10 15 42 15 69 0 28 7 61 15 75 8 14 14 52 15 88 0 35 6 73 13
85 6 12 15 72 18 132 3 61 11 126 16 145 13 48 8 675 -6 720 -6 19 -11 82 -11
140 -1 72 -5 113 -15 130 -9 15 -15 54 -15 100 0 50 -6 82 -15 94 -8 11 -15
41 -15 67 0 25 -7 63 -15 82 -8 20 -15 49 -15 66 0 16 -7 42 -15 57 -8 16 -15
46 -15 66 0 20 -4 39 -9 43 -6 3 -13 26 -17 50 -3 25 -10 48 -15 51 -5 3 -9
17 -9 32 0 15 -7 40 -15 56 -8 15 -15 38 -15 50 0 11 -7 30 -15 40 -8 11 -15
29 -15 41 0 12 -7 30 -15 41 -8 10 -15 28 -15 39 0 11 -7 29 -15 39 -8 11 -15
28 -15 39 0 10 -7 25 -15 33 -8 9 -15 26 -15 40 0 13 -4 24 -10 24 -5 0 -10 5
-10 11 0 12 -22 66 -46 112 -8 16 -14 37 -14 47 0 10 -7 20 -15 24 -8 3 -15
16 -15 30 0 13 -7 26 -15 30 -8 3 -15 14 -15 24 0 11 -7 25 -15 32 -8 7 -15
21 -15 31 0 11 -4 19 -9 19 -5 0 -14 12 -20 28 -13 34 -57 112 -71 126 -5 5
-10 18 -10 27 0 9 -7 19 -15 23 -8 3 -15 12 -15 21 0 8 -4 15 -10 15 -5 0 -12
11 -16 24 -3 14 -12 27 -20 30 -8 3 -14 14 -14 25 0 11 -3 21 -7 23 -11 5 -53
66 -53 77 0 5 -3 11 -8 13 -13 5 -72 85 -72 97 0 7 -7 14 -15 17 -8 4 -15 10
-15 14 0 5 -13 24 -30 42 -16 18 -30 37 -30 42 0 5 -11 19 -25 32 -14 13 -25
27 -25 31 0 4 -14 22 -30 40 -17 18 -30 34 -30 37 0 2 -21 26 -47 53 -27 28
-70 76 -98 107 -61 71 -109 120 -206 210 -41 38 -102 95 -136 127 -35 33 -65
59 -68 59 -3 0 -13 8 -24 18 -10 9 -33 28 -52 42 -18 14 -40 32 -48 41 -9 8
-38 31 -66 50 -27 19 -59 44 -71 55 -11 12 -31 25 -42 29 -12 3 -22 11 -22 16
0 5 -7 9 -15 9 -9 0 -18 7 -21 15 -4 8 -15 15 -25 15 -11 0 -22 7 -25 15 -4 8
-12 15 -20 15 -8 0 -14 5 -14 10 0 6 -6 10 -14 10 -8 0 -21 6 -28 13 -13 13
-79 54 -123 77 -11 6 -33 19 -50 30 -16 10 -64 36 -105 57 -41 21 -77 40 -80
43 -3 3 -21 12 -40 21 -108 50 -130 61 -135 70 -4 5 -17 9 -29 9 -13 0 -29 7
-36 15 -7 8 -23 15 -37 15 -13 0 -26 7 -29 15 -4 8 -17 15 -29 15 -13 0 -38 8
-57 17 -59 30 -68 33 -80 33 -7 0 -26 7 -41 15 -15 8 -43 17 -63 21 -19 3 -37
10 -40 15 -3 5 -18 9 -33 9 -15 0 -36 7 -47 15 -10 8 -33 15 -50 15 -17 0 -37
7 -44 15 -7 9 -29 15 -54 15 -23 0 -51 7 -62 15 -10 8 -35 15 -55 15 -20 0
-53 7 -72 15 -20 8 -50 15 -67 15 -17 0 -38 4 -48 10 -25 14 -123 30 -242 41
-58 5 -114 13 -125 18 -11 5 -90 12 -175 14 -85 3 -168 10 -183 16 -34 13
-245 13 -302 0z m390 -39 c22 -5 98 -12 169 -15 71 -3 137 -10 147 -16 10 -5
51 -9 91 -9 40 -1 91 -7 113 -15 22 -8 58 -15 80 -15 22 0 51 -7 65 -15 14 -8
44 -14 67 -15 23 0 48 -7 57 -15 8 -8 32 -15 53 -15 22 0 48 -7 59 -15 10 -8
33 -15 49 -15 17 0 39 -7 49 -15 11 -8 32 -15 47 -15 15 0 40 -7 55 -15 16 -8
39 -15 51 -15 12 0 25 -4 28 -10 3 -5 16 -10 29 -10 12 0 31 -7 42 -15 10 -8
31 -15 45 -15 15 0 32 -7 39 -15 7 -8 23 -15 35 -15 12 0 28 -7 35 -15 7 -8
25 -15 40 -15 15 0 33 -7 40 -15 7 -8 25 -15 41 -15 16 0 29 -4 29 -8 0 -5 19
-16 43 -27 76 -33 181 -85 212 -105 17 -11 37 -23 45 -26 40 -16 86 -40 98
-51 7 -7 20 -13 28 -13 8 0 14 -4 14 -9 0 -4 23 -19 50 -32 28 -13 50 -27 50
-31 0 -5 6 -8 13 -8 7 0 27 -13 45 -30 18 -16 39 -30 45 -30 7 0 26 -12 43
-27 17 -16 46 -37 65 -47 19 -11 45 -30 59 -43 14 -13 33 -26 43 -29 9 -3 17
-10 17 -15 0 -5 7 -9 15 -9 7 0 18 -6 22 -13 4 -7 28 -28 53 -47 25 -19 49
-40 53 -47 4 -7 12 -13 17 -13 5 0 33 -23 62 -51 29 -28 73 -68 97 -88 25 -20
76 -66 113 -103 38 -38 73 -68 78 -68 6 0 10 -4 10 -10 0 -5 15 -24 33 -43 60
-62 117 -126 117 -131 0 -3 18 -24 40 -46 22 -22 40 -43 40 -47 1 -5 14 -19
30 -33 17 -13 30 -29 30 -35 0 -5 18 -30 40 -55 22 -25 42 -53 46 -62 3 -10
10 -18 15 -18 5 0 9 -7 9 -15 0 -8 5 -15 10 -15 6 0 15 -10 20 -22 14 -32 31
-56 63 -90 15 -16 27 -35 27 -43 0 -8 5 -15 10 -15 6 0 10 -7 10 -15 0 -9 7
-18 15 -21 8 -4 15 -13 15 -21 0 -8 14 -32 30 -53 17 -21 30 -45 30 -53 0 -8
7 -17 15 -21 8 -3 15 -14 15 -25 0 -10 7 -21 15 -25 8 -3 15 -14 15 -24 0 -11
7 -25 15 -32 8 -7 15 -18 15 -25 0 -8 3 -15 8 -17 6 -3 31 -49 46 -88 3 -8 10
-22 15 -30 5 -8 12 -22 15 -30 3 -8 10 -22 15 -30 26 -45 41 -80 41 -93 0 -8
7 -20 15 -27 8 -7 15 -23 15 -36 0 -13 4 -24 9 -24 5 0 13 -10 16 -22 8 -27
32 -86 45 -110 6 -10 10 -26 10 -36 0 -10 7 -27 15 -38 8 -10 15 -28 15 -40 0
-11 7 -29 15 -40 8 -10 15 -33 15 -50 0 -17 7 -37 15 -44 8 -7 15 -27 15 -44
0 -17 7 -40 15 -50 8 -11 15 -34 15 -51 0 -17 4 -35 10 -41 10 -10 20 -50 42
-164 5 -30 14 -59 19 -64 5 -6 9 -28 9 -50 1 -23 7 -59 15 -81 8 -22 15 -62
15 -88 0 -26 7 -64 15 -84 9 -22 15 -67 15 -120 0 -47 5 -94 12 -106 8 -14 15
-99 20 -222 11 -254 11 -241 3 -495 -5 -158 -11 -221 -21 -237 -9 -14 -14 -50
-14 -98 0 -45 -6 -90 -15 -112 -8 -19 -15 -58 -15 -85 0 -27 -5 -58 -11 -69
-6 -11 -13 -44 -15 -72 -3 -28 -9 -56 -14 -61 -4 -6 -13 -33 -19 -61 -26 -129
-32 -150 -41 -159 -6 -6 -10 -24 -10 -41 0 -17 -7 -40 -15 -51 -8 -10 -15 -33
-15 -50 0 -17 -7 -37 -15 -44 -8 -7 -15 -25 -15 -39 0 -15 -7 -36 -15 -47 -8
-10 -15 -28 -15 -39 0 -11 -7 -29 -15 -39 -8 -11 -15 -28 -15 -38 0 -10 -4
-26 -10 -36 -5 -9 -16 -35 -25 -57 -9 -22 -23 -53 -31 -68 -8 -16 -14 -37 -14
-48 0 -11 -7 -22 -15 -25 -8 -4 -15 -17 -15 -30 0 -14 -7 -27 -15 -30 -8 -4
-15 -14 -15 -24 0 -18 -28 -80 -41 -90 -4 -3 -17 -27 -29 -55 -12 -27 -25 -52
-29 -55 -3 -3 -17 -27 -31 -53 -46 -88 -51 -97 -61 -97 -5 0 -9 -9 -9 -19 0
-11 -5 -23 -11 -26 -5 -4 -14 -17 -20 -28 -10 -24 -31 -59 -39 -67 -3 -3 -30
-42 -59 -87 -30 -46 -58 -83 -63 -83 -4 0 -8 -7 -8 -15 0 -8 -4 -15 -9 -15 -5
0 -13 -9 -16 -21 -4 -12 -14 -29 -23 -39 -33 -36 -62 -72 -62 -78 0 -3 -7 -12
-15 -21 -59 -64 -75 -82 -75 -86 0 -5 -20 -29 -104 -124 -64 -72 -336 -341
-345 -341 -3 0 -13 -8 -22 -17 -8 -10 -37 -36 -64 -58 -26 -22 -55 -47 -64
-55 -9 -9 -43 -36 -76 -60 -33 -24 -65 -49 -70 -56 -6 -6 -20 -14 -33 -18 -12
-4 -22 -12 -22 -17 0 -5 -4 -9 -9 -9 -6 0 -25 -14 -43 -30 -18 -16 -38 -30
-45 -30 -7 0 -13 -4 -13 -8 0 -10 -211 -149 -245 -162 -13 -5 -26 -14 -30 -19
-3 -6 -15 -11 -26 -11 -10 0 -19 -4 -19 -9 0 -5 -33 -26 -72 -46 -40 -21 -77
-41 -83 -46 -5 -5 -17 -9 -26 -9 -9 0 -22 -7 -29 -15 -7 -8 -20 -15 -30 -15
-10 0 -23 -7 -30 -15 -7 -8 -25 -15 -40 -15 -16 0 -30 -7 -34 -15 -3 -8 -17
-15 -31 -15 -14 0 -25 -4 -25 -10 0 -5 -12 -13 -27 -16 -15 -4 -34 -13 -41
-21 -7 -7 -22 -13 -32 -13 -10 0 -22 -4 -25 -10 -3 -6 -13 -10 -22 -10 -15 0
-65 -19 -116 -46 -16 -8 -38 -14 -50 -14 -12 0 -31 -7 -41 -15 -11 -8 -32 -15
-47 -15 -14 0 -32 -7 -39 -15 -7 -8 -27 -15 -44 -15 -17 0 -40 -7 -50 -15 -11
-8 -32 -15 -47 -15 -15 0 -40 -7 -55 -15 -16 -8 -46 -15 -66 -15 -20 0 -39 -4
-43 -9 -3 -5 -30 -13 -60 -16 -31 -4 -58 -11 -61 -16 -3 -5 -25 -9 -50 -9 -25
0 -61 -7 -81 -15 -19 -8 -64 -15 -100 -15 -35 0 -74 -6 -86 -12 -12 -7 -78
-16 -147 -19 -69 -4 -150 -12 -180 -17 -75 -14 -533 -14 -590 0 -25 6 -106 13
-180 17 -78 3 -144 11 -157 19 -12 6 -48 12 -81 12 -33 0 -76 7 -95 15 -20 8
-54 15 -76 15 -22 0 -43 4 -46 10 -3 5 -23 10 -44 10 -21 0 -61 7 -87 15 -27
8 -66 17 -86 20 -21 3 -38 10 -38 15 0 6 -15 10 -32 10 -18 0 -46 7 -62 15
-15 8 -36 15 -45 15 -10 0 -26 7 -37 15 -10 8 -31 15 -45 15 -14 0 -34 7 -45
15 -10 8 -30 15 -44 15 -14 0 -36 7 -50 15 -14 8 -35 14 -47 15 -13 0 -23 5
-23 10 0 6 -8 10 -17 10 -10 1 -36 9 -58 20 -22 11 -48 19 -57 20 -9 0 -19 4
-23 9 -3 5 -19 12 -35 16 -17 4 -30 11 -30 16 0 5 -8 9 -19 9 -10 0 -24 7 -31
15 -7 8 -20 15 -30 15 -10 0 -23 7 -30 15 -7 8 -20 15 -30 15 -10 0 -23 7 -30
15 -7 8 -20 15 -30 15 -10 0 -23 7 -30 15 -7 8 -19 15 -28 15 -8 0 -30 11 -48
25 -18 14 -38 25 -44 25 -12 0 -73 41 -78 53 -2 4 -12 7 -22 7 -9 0 -23 7 -30
15 -7 8 -19 15 -26 15 -8 0 -14 4 -14 10 0 5 -11 12 -25 16 -14 3 -25 9 -25
13 0 3 -20 17 -45 31 -25 14 -45 28 -45 31 0 4 -8 10 -17 13 -26 9 -65 33 -72
43 -3 5 -35 31 -71 58 -36 27 -67 52 -70 55 -3 3 -21 17 -40 30 -36 26 -72 54
-99 80 -9 8 -37 31 -61 50 -25 19 -62 52 -83 72 -21 21 -43 38 -48 38 -5 0 -9
7 -9 15 0 8 -4 15 -10 15 -13 0 -220 206 -220 220 0 5 -7 10 -15 10 -8 0 -15
4 -15 9 0 5 -20 31 -45 58 -25 26 -45 51 -45 55 0 5 -18 26 -40 48 -22 22 -40
43 -40 46 0 3 -6 11 -13 19 -28 30 -47 56 -47 65 0 6 -4 10 -9 10 -5 0 -20 17
-32 38 -22 36 -32 49 -54 75 -21 23 -121 173 -132 197 -4 8 -13 21 -20 28 -7
7 -13 20 -13 28 0 8 -4 14 -9 14 -5 0 -13 10 -17 23 -4 12 -10 24 -13 27 -14
11 -41 60 -41 74 0 7 -7 16 -15 20 -8 3 -15 14 -15 24 0 11 -7 25 -15 32 -8 7
-15 20 -15 30 0 10 -7 20 -15 24 -8 3 -15 16 -15 30 0 13 -7 26 -15 30 -8 3
-15 15 -15 26 0 11 -4 20 -9 20 -5 0 -12 10 -16 23 -3 12 -18 47 -32 77 -14
30 -32 71 -40 90 -9 19 -22 48 -29 63 -8 16 -14 37 -14 47 0 9 -7 23 -15 30
-8 7 -15 23 -15 37 0 13 -7 31 -15 39 -8 9 -15 24 -15 34 0 10 -7 31 -15 46
-8 16 -15 39 -15 51 0 12 -5 25 -10 28 -5 3 -10 14 -10 23 0 9 -7 30 -15 46
-8 15 -15 40 -15 55 0 15 -7 36 -15 47 -8 10 -15 38 -15 60 0 24 -6 47 -15 54
-8 7 -15 29 -15 50 0 21 -7 51 -15 66 -8 16 -15 48 -15 70 0 23 -7 55 -15 70
-8 16 -15 54 -15 85 0 30 -5 60 -11 66 -6 6 -14 53 -17 105 -2 51 -9 101 -13
110 -18 34 -31 611 -18 828 6 113 15 210 19 215 4 6 10 50 13 98 3 49 10 94
16 100 6 6 11 34 11 62 0 27 7 63 15 79 8 15 15 47 15 70 0 23 7 51 15 62 8
10 15 39 15 64 0 25 7 54 15 64 8 11 15 34 15 50 0 17 7 40 15 50 8 11 15 32
15 47 0 15 7 40 15 55 8 16 15 36 15 45 0 9 7 30 15 45 8 16 15 39 15 52 0 12
5 22 10 22 6 0 10 13 10 29 0 16 7 36 15 45 8 8 15 24 15 35 0 11 7 26 15 35
8 8 15 26 15 39 0 14 7 30 15 37 8 7 15 23 15 35 0 12 7 28 15 35 8 7 15 18
15 24 0 7 11 34 24 62 13 27 33 69 45 94 12 25 25 52 30 60 5 8 12 22 15 30 3
8 10 23 16 33 26 45 31 53 40 72 6 11 19 34 30 50 10 17 29 49 41 73 13 23 26
42 30 42 4 0 10 11 13 25 4 14 11 25 16 25 6 0 10 7 10 15 0 9 7 18 15 21 8 4
15 15 15 25 0 11 7 22 15 25 8 4 15 12 15 20 0 8 3 14 8 14 4 0 16 17 27 37
11 20 25 41 30 47 6 6 21 28 34 49 12 20 27 37 32 37 5 0 9 7 9 15 0 8 7 15
15 15 8 0 15 5 15 11 0 12 71 106 116 154 15 17 42 48 59 71 17 22 61 71 98
107 37 37 67 72 67 77 0 6 7 10 15 10 8 0 15 7 15 15 0 8 7 15 15 15 8 0 15 7
15 15 0 8 7 15 15 15 8 0 15 7 15 15 0 8 4 15 8 15 4 0 39 30 78 68 38 37 89
83 114 102 24 19 56 46 70 59 14 12 61 50 105 84 44 34 86 67 93 74 7 7 19 13
27 13 7 0 15 4 17 9 3 9 134 101 144 101 3 0 23 14 44 30 21 17 45 30 54 30 9
0 16 4 16 9 0 5 20 20 45 32 25 12 45 26 45 30 0 4 11 10 25 13 14 4 25 11 25
16 0 6 6 10 14 10 7 0 19 7 26 15 7 8 20 15 30 15 10 0 20 7 24 15 3 8 16 15
30 15 13 0 26 7 30 15 3 8 16 15 30 15 13 0 26 4 28 8 2 5 35 23 73 41 39 18
97 46 130 62 33 16 70 29 83 29 12 0 22 4 22 10 0 5 12 12 28 16 26 6 71 24
124 51 14 7 37 13 50 13 12 0 32 7 42 15 11 8 30 15 42 15 13 0 26 5 29 10 3
6 21 10 39 10 18 0 41 7 52 15 10 8 33 15 49 15 17 0 41 7 55 15 14 8 43 15
65 15 22 0 49 7 59 15 11 8 40 15 64 15 25 0 50 6 58 15 10 9 34 15 64 15 26
0 61 7 76 15 16 8 53 15 82 15 29 0 62 4 72 10 27 15 249 32 505 39 251 7 339
5 400 -9z"/>
<path d="M5877 11383 c-4 -3 -3 -11 2 -17 7 -10 40 -72 183 -343 63 -122 135
-258 190 -363 25 -47 77 -146 115 -220 39 -74 90 -171 113 -215 23 -44 66
-125 95 -180 29 -55 76 -145 105 -200 29 -55 76 -145 105 -200 29 -55 75 -143
102 -195 28 -52 78 -147 111 -210 33 -63 81 -155 107 -205 26 -49 71 -135 100
-190 29 -55 74 -140 100 -190 26 -49 79 -151 118 -225 38 -74 85 -164 105
-200 19 -36 65 -123 102 -195 65 -124 110 -211 197 -375 22 -41 72 -136 110
-210 39 -74 92 -175 118 -225 27 -49 71 -135 100 -190 29 -55 81 -154 115
-220 35 -66 70 -134 79 -152 8 -18 22 -34 30 -35 12 -2 323 611 1203 2371 653
1306 1185 2378 1182 2383 -6 10 -975 11 -990 0 -6 -4 -39 -65 -74 -137 -34
-71 -106 -220 -160 -330 -205 -420 -301 -616 -390 -800 -51 -104 -141 -289
-200 -410 -59 -121 -149 -305 -200 -410 -326 -669 -320 -659 -340 -639 -10 11
-52 84 -93 164 -144 280 -352 684 -457 885 -116 222 -204 393 -297 575 -50 96
-123 238 -163 315 -160 309 -206 397 -288 555 -47 91 -92 179 -100 195 -9 17
-20 33 -26 37 -14 9 -1100 11 -1109 1z"/>
<path d="M4204 5842 c-5 -4 -18 -29 -28 -57 -10 -27 -27 -70 -38 -95 -28 -66
-33 -77 -67 -162 -48 -119 -92 -229 -108 -268 -8 -19 -18 -44 -22 -55 -5 -11
-16 -38 -26 -61 -26 -62 -18 -82 51 -130 l60 -42 67 51 c37 29 120 93 184 142
65 50 142 109 171 133 29 23 57 42 62 42 12 0 13 -34 1 -58 -13 -28 -37 -84
-56 -132 -10 -25 -21 -54 -26 -65 -4 -11 -18 -45 -30 -75 -12 -30 -27 -68 -34
-85 -7 -16 -21 -52 -30 -80 -10 -27 -22 -55 -26 -60 -4 -6 -2 -17 4 -25 18
-24 108 -90 123 -90 12 0 100 66 290 215 35 28 116 91 181 140 64 50 130 102
147 118 17 15 34 27 37 27 4 0 5 8 2 18 -7 25 -100 84 -117 75 -8 -4 -42 -33
-77 -64 -35 -31 -93 -80 -129 -110 -36 -29 -67 -56 -70 -59 -14 -18 -187 -157
-201 -162 -14 -6 -15 -2 -9 25 4 18 13 46 20 62 26 63 38 91 49 115 6 14 20
50 31 80 12 30 28 71 36 90 9 19 20 46 26 60 28 68 36 88 53 125 l17 40 -53
48 c-29 26 -60 47 -70 47 -9 0 -41 -19 -70 -43 -83 -66 -189 -150 -239 -187
-25 -19 -47 -38 -50 -42 -10 -13 -153 -118 -162 -118 -11 0 -10 26 1 48 5 9
16 33 24 52 9 19 30 67 47 105 18 39 35 79 40 90 11 27 65 146 101 222 16 35
29 68 29 76 0 7 -22 29 -50 50 -55 41 -51 39 -66 29z"/>
<path d="M12321 5782 c-43 -38 -43 -38 -28 -68 8 -16 24 -38 34 -49 10 -11 41
-49 68 -85 27 -36 55 -71 62 -78 7 -7 34 -41 60 -75 26 -34 53 -68 60 -75 37
-39 39 -81 3 -62 -10 5 -26 10 -35 10 -9 0 -31 6 -48 13 -18 8 -59 22 -92 31
-33 10 -75 24 -93 32 -18 8 -39 14 -47 14 -9 0 -23 4 -33 9 -34 19 -267 88
-282 84 -8 -2 -35 -21 -60 -42 l-44 -39 44 -58 c24 -32 52 -68 62 -79 9 -11
36 -45 60 -76 24 -31 100 -129 170 -217 69 -88 132 -169 140 -181 12 -19 58
-30 58 -13 0 4 16 18 35 31 19 13 35 29 35 35 0 11 -47 74 -193 259 -98 125
-141 186 -135 192 7 7 82 -11 110 -26 10 -5 34 -13 55 -18 34 -8 71 -20 128
-41 38 -15 310 -100 338 -106 21 -5 37 1 67 21 34 24 40 33 40 64 0 24 -8 45
-23 61 -13 14 -47 57 -76 95 -30 39 -57 72 -60 75 -4 3 -29 34 -56 70 -27 36
-52 67 -55 70 -3 3 -28 34 -55 70 -92 122 -151 190 -165 190 -3 -1 -25 -18
-49 -38z"/>
<path d="M11290 5081 c-44 -16 -140 -69 -170 -94 -8 -6 -29 -30 -47 -52 -77
-100 -99 -215 -65 -350 29 -119 147 -268 247 -315 42 -19 66 -23 150 -23 93 0
105 2 167 32 36 19 82 50 101 70 39 40 77 106 77 133 0 28 23 20 50 -16 l26
-34 39 19 c22 11 46 26 54 33 15 16 19 6 -66 166 -28 52 -66 123 -84 158 -20
37 -40 62 -49 62 -16 0 -70 -26 -188 -90 -26 -14 -62 -33 -79 -43 -30 -16 -32
-19 -21 -45 27 -64 32 -64 114 -21 116 61 124 56 124 -66 0 -68 -3 -77 -33
-116 -132 -174 -353 -149 -454 52 -55 110 -64 172 -37 251 44 132 211 210 328
154 38 -18 39 -18 87 5 27 12 56 30 64 39 14 15 13 19 -11 36 -14 10 -31 24
-38 29 -47 44 -200 57 -286 26z"/>
<path d="M5380 5025 c0 -8 -4 -15 -10 -15 -5 0 -10 -5 -10 -11 0 -6 -72 -157
-160 -334 -88 -178 -160 -332 -160 -344 0 -16 41 -40 224 -131 123 -60 228
-110 234 -110 12 0 42 62 42 85 0 8 -74 50 -165 95 -91 44 -165 86 -165 93 0
7 21 56 47 109 32 64 54 98 64 98 15 0 74 -27 243 -112 62 -31 66 -30 89 15
21 40 12 59 -36 81 -145 64 -237 113 -242 128 -6 18 65 177 87 196 11 8 51 -7
176 -68 89 -44 168 -80 174 -80 14 0 51 78 43 90 -6 10 -450 230 -464 230 -6
0 -11 -7 -11 -15z"/>
<path d="M10490 4703 c-82 -28 -92 -44 -66 -105 13 -31 22 -53 61 -158 39
-105 48 -126 55 -140 4 -9 11 -30 14 -48 4 -17 12 -34 17 -37 5 -4 9 -14 9
-23 0 -9 6 -29 14 -44 8 -15 17 -40 21 -57 4 -17 11 -33 16 -36 5 -4 9 -16 9
-29 0 -12 5 -27 11 -33 6 -6 14 -26 18 -45 8 -40 36 -48 86 -24 18 9 38 16 45
16 14 0 5 68 -11 84 -5 6 -9 17 -9 25 0 9 -7 29 -15 45 -8 15 -15 33 -15 38 0
6 -6 24 -14 41 -14 33 -38 94 -63 162 -9 22 -21 56 -28 75 -8 19 -34 91 -60
160 -41 110 -57 141 -75 139 -3 0 -12 -3 -20 -6z"/>
<path d="M6184 4656 c-3 -12 -9 -30 -14 -41 -5 -11 -18 -54 -30 -95 -11 -41
-25 -83 -31 -92 -5 -10 -9 -26 -9 -35 0 -10 -7 -31 -15 -47 -8 -15 -15 -37
-15 -47 0 -10 -6 -33 -14 -51 -8 -18 -22 -60 -32 -93 -9 -33 -23 -74 -31 -92
-7 -17 -13 -38 -13 -46 0 -8 -7 -31 -15 -52 -20 -46 -12 -73 23 -81 15 -3 43
-11 62 -19 19 -7 62 -21 95 -30 33 -10 67 -21 77 -26 32 -16 151 -31 195 -25
46 6 107 37 131 66 25 30 52 102 52 140 0 41 -40 129 -65 143 -26 14 -16 27
38 52 83 39 110 71 119 142 12 85 0 121 -59 179 -29 30 -60 54 -67 54 -8 0
-27 6 -43 14 -15 8 -55 22 -88 31 -33 10 -67 21 -75 25 -9 4 -31 11 -50 15
-19 4 -39 11 -45 15 -5 4 -25 10 -42 12 -27 4 -34 1 -39 -16z m216 -155 c108
-36 150 -73 150 -132 0 -39 -20 -82 -50 -106 -18 -15 -126 -17 -135 -3 -3 6
-16 10 -28 10 -38 1 -107 37 -107 57 0 39 63 203 77 203 5 0 46 -13 93 -29z
m-105 -326 c91 -29 138 -58 161 -101 23 -43 12 -94 -30 -139 -49 -51 -97 -49
-263 14 -28 10 -43 22 -43 33 0 17 56 193 66 210 8 13 25 10 109 -17z"/>
<path d="M9750 4490 c-8 -5 -34 -18 -57 -29 -55 -26 -80 -48 -111 -96 -22 -33
-26 -51 -26 -105 2 -154 85 -212 338 -235 118 -11 176 -55 176 -133 0 -33 -53
-92 -92 -104 -74 -20 -156 3 -185 53 -20 34 -54 38 -119 13 -36 -14 -41 -19
-35 -38 8 -28 63 -106 75 -106 5 0 17 -6 25 -13 48 -39 156 -49 251 -23 102
27 162 70 200 144 19 37 22 54 18 115 -6 87 -26 125 -88 164 -52 34 -172 63
-258 63 -82 0 -135 27 -156 81 -16 39 -16 43 1 73 11 19 38 40 67 55 45 21 53
22 87 11 21 -7 50 -26 65 -41 15 -16 37 -29 48 -29 33 0 110 26 114 38 4 13
-39 81 -65 102 -45 36 -94 50 -176 49 -45 0 -89 -4 -97 -9z"/>
<path d="M9005 4345 c-44 -8 -111 -14 -150 -15 -38 -1 -101 -7 -140 -13 l-70
-13 1 -44 c0 -47 18 -236 35 -380 5 -47 14 -144 19 -217 9 -135 22 -177 51
-168 8 3 74 9 145 15 71 5 177 14 237 21 l107 12 0 42 c0 24 -6 47 -13 53 -8
7 -43 7 -107 1 -203 -20 -267 -22 -274 -10 -4 6 -10 60 -13 120 -5 83 -3 110
7 116 7 5 68 12 134 16 146 10 196 18 197 33 2 18 -3 81 -6 84 -1 2 -78 -2
-170 -8 -100 -7 -172 -7 -177 -2 -12 12 -26 186 -17 210 6 16 22 20 106 26
114 8 259 28 268 38 4 3 3 27 0 52 l-7 46 -42 -1 c-22 -1 -77 -7 -121 -14z"/>
<path d="M7595 4308 c-3 -13 -9 -111 -15 -218 -5 -107 -15 -275 -21 -373 -9
-138 -9 -181 0 -190 14 -14 277 -25 386 -16 99 8 176 48 237 124 26 32 50 72
54 89 3 17 11 37 17 44 6 8 10 68 10 150 0 108 -4 143 -16 167 -9 17 -17 35
-17 42 0 23 -101 121 -147 144 -80 38 -204 59 -350 59 -129 0 -133 -1 -138
-22z m403 -133 c86 -41 128 -125 126 -260 -1 -140 -45 -225 -138 -269 -47 -23
-68 -26 -154 -26 -81 0 -104 3 -122 18 l-22 18 16 159 c9 87 16 205 16 262 0
142 2 144 138 127 57 -6 119 -20 140 -29z"/>
</g>
</svg>
